<svg width="14" height="12" viewBox="0 0 14 12" fill="none" xmlns="http://www.w3.org/2000/svg">
<path d="M11.6591 2.93182V9.25909C11.6591 9.98454 11.0755 10.5682 10.35 10.5682H3.15C2.42455 10.5682 1.84091 9.98454 1.84091 9.25909V2.93182M4.56818 5.11364H8.93182M1.62273 0.75H11.8773C12.1087 0.75 12.3307 0.841948 12.4944 1.00562C12.6581 1.16928 12.75 1.39127 12.75 1.62273V2.05909C12.75 2.1737 12.7274 2.28718 12.6836 2.39307C12.6397 2.49895 12.5754 2.59516 12.4944 2.6762C12.4133 2.75724 12.3171 2.82153 12.2113 2.86539C12.1054 2.90924 11.9919 2.93182 11.8773 2.93182H1.62273C1.39127 2.93182 1.16928 2.83987 1.00562 2.6762C0.841948 2.51253 0.75 2.29055 0.75 2.05909V1.62273C0.75 1.50812 0.772574 1.39463 0.816432 1.28875C0.860291 1.18286 0.924576 1.08666 1.00562 1.00562C1.16928 0.841948 1.39127 0.75 1.62273 0.75Z" stroke="white" stroke-width="1.5" stroke-miterlimit="10" stroke-linecap="round" stroke-linejoin="round"/>
</svg>
