<svg width="12" height="12" viewBox="0 0 12 12" fill="none" xmlns="http://www.w3.org/2000/svg">
<g clip-path="url(#clip0_324_104)">
<path fill-rule="evenodd" clip-rule="evenodd" d="M0 2.40004C0 1.56004 0 1.14004 0.1635 0.817535C0.3075 0.535535 0.537 0.306035 0.819 0.162035C1.14 -0.00146483 1.56 -0.00146484 2.4015 -0.00146484H2.8515C3.6915 -0.00146484 4.1115 -0.00146483 4.434 0.162035C4.716 0.306035 4.9455 0.535535 5.0895 0.817535C5.253 1.13854 5.253 1.55854 5.253 2.40004V2.85004C5.253 3.69004 5.253 4.11003 5.0895 4.43253C4.94569 4.71477 4.71623 4.94423 4.434 5.08803C4.113 5.25153 3.693 5.25153 2.8515 5.25153H2.4015C1.5615 5.25153 1.1415 5.25153 0.819 5.08803C0.536769 4.94423 0.307308 4.71477 0.1635 4.43253C0 4.11153 0 3.69154 0 2.85004V2.40004ZM2.4 0.750035H2.85C3.28275 0.750035 3.56175 0.750035 3.7725 0.768035C3.9765 0.784535 4.0515 0.813035 4.089 0.831785C4.23 0.903785 4.34475 1.01854 4.41675 1.15954C4.4355 1.19704 4.464 1.27204 4.4805 1.47604C4.49775 1.68829 4.4985 1.96804 4.4985 2.39854V2.84854C4.4985 3.28129 4.4985 3.56028 4.4805 3.77103C4.464 3.97503 4.4355 4.05003 4.41675 4.08753C4.34485 4.22865 4.23012 4.34338 4.089 4.41529C4.0515 4.43404 3.9765 4.46254 3.7725 4.47904C3.56025 4.49629 3.2805 4.49703 2.85 4.49703H2.4C1.96725 4.49703 1.68825 4.49704 1.4775 4.47904C1.2735 4.46254 1.1985 4.43404 1.161 4.41529C1.01988 4.34338 0.905154 4.22865 0.83325 4.08753C0.8145 4.05003 0.786 3.97503 0.7695 3.77103C0.752372 3.46385 0.746368 3.15615 0.7515 2.84854V2.39854C0.7515 1.96579 0.7515 1.68679 0.7695 1.47604C0.786 1.27204 0.8145 1.19704 0.83325 1.15954C0.90525 1.01854 1.02 0.903785 1.161 0.831785C1.1985 0.813035 1.2735 0.784535 1.4775 0.768035C1.68975 0.750035 1.9695 0.750035 2.4 0.750035ZM6.75 9.15003C6.75 8.31003 6.75 7.89004 6.9135 7.56754C7.0575 7.28554 7.287 7.05603 7.569 6.91203C7.89 6.74853 8.31 6.74854 9.1515 6.74854H9.6015C10.4415 6.74854 10.8615 6.74853 11.184 6.91203C11.466 7.05603 11.6955 7.28554 11.8395 7.56754C12.003 7.88854 12.003 8.30853 12.003 9.15003V9.60004C12.003 10.44 12.003 10.86 11.8395 11.1825C11.6957 11.4648 11.4662 11.6942 11.184 11.838C10.863 12.0015 10.443 12.0015 9.6015 12.0015H9.1515C8.3115 12.0015 7.8915 12.0015 7.569 11.838C7.28677 11.6942 7.05731 11.4648 6.9135 11.1825C6.75 10.8615 6.75 10.4415 6.75 9.60004V9.15003ZM9.6 7.50004C10.0328 7.50004 10.3117 7.50004 10.5225 7.51804C10.7265 7.53454 10.8015 7.56304 10.839 7.58179C10.98 7.65379 11.0947 7.76853 11.1667 7.90953C11.1855 7.94703 11.214 8.02204 11.2305 8.22604C11.2477 8.43829 11.2485 8.71804 11.2485 9.14854V9.59854C11.2485 10.0313 11.2485 10.3103 11.2305 10.521C11.214 10.725 11.1855 10.8 11.1667 10.8375C11.0948 10.9787 10.9801 11.0934 10.839 11.1653C10.8015 11.184 10.7265 11.2125 10.5225 11.229C10.3102 11.2463 10.0305 11.247 9.6 11.247H9.15C8.71725 11.247 8.43825 11.247 8.2275 11.229C8.0235 11.2125 7.9485 11.184 7.911 11.1653C7.76988 11.0934 7.65515 10.9787 7.58325 10.8375C7.5645 10.8 7.536 10.725 7.5195 10.521C7.50237 10.2139 7.49637 9.90615 7.5015 9.59854V9.14854C7.5015 8.71578 7.5015 8.43679 7.5195 8.22604C7.536 8.02204 7.5645 7.94703 7.58325 7.90953C7.65525 7.76853 7.77 7.65379 7.911 7.58179C7.9485 7.56304 8.0235 7.53454 8.2275 7.51804C8.43975 7.50079 8.7195 7.50004 9.15 7.50004H9.6Z" fill="white"/>
<path d="M5.99952 1.875C5.99952 1.77554 6.03903 1.68016 6.10935 1.60984C6.17968 1.53951 6.27506 1.5 6.37452 1.5H7.87452C8.3718 1.5 8.84871 1.69754 9.20034 2.04917C9.55197 2.40081 9.74952 2.87772 9.74952 3.375V4.7175L10.612 3.855C10.6827 3.78669 10.7775 3.74889 10.8758 3.74975C10.9741 3.7506 11.0682 3.79004 11.1377 3.85957C11.2072 3.9291 11.2467 4.02315 11.2475 4.12147C11.2484 4.2198 11.2106 4.31452 11.1423 4.38525L9.64227 5.88525C9.57194 5.95555 9.47658 5.99505 9.37714 5.99505C9.27771 5.99505 9.18234 5.95555 9.11202 5.88525L7.61202 4.38525C7.54371 4.31452 7.50591 4.2198 7.50676 4.12147C7.50762 4.02315 7.54706 3.9291 7.61659 3.85957C7.68611 3.79004 7.78017 3.7506 7.87849 3.74975C7.97682 3.74889 8.07154 3.78669 8.14227 3.855L9.00477 4.7175V3.375C9.00477 3.07663 8.88624 2.79048 8.67526 2.5795C8.46428 2.36853 8.17814 2.25 7.87977 2.25H6.37977C6.28031 2.25 6.18493 2.21049 6.1146 2.14016C6.04428 2.06984 6.00477 1.97446 6.00477 1.875H5.99952ZM2.48202 6.03C2.52674 6.01149 2.57462 6.00181 2.62302 6.0015H2.62752C2.72626 6.00192 2.82086 6.04126 2.89077 6.111L4.39077 7.611C4.45908 7.68173 4.49687 7.77645 4.49602 7.87478C4.49517 7.9731 4.45573 8.06715 4.3862 8.13668C4.31667 8.20621 4.22262 8.24565 4.12429 8.2465C4.02597 8.24736 3.93124 8.20956 3.86052 8.14125L2.99802 7.27875V8.62125C2.99802 8.91962 3.11654 9.20577 3.32752 9.41675C3.5385 9.62772 3.82465 9.74625 4.12302 9.74625H5.62302C5.72247 9.74625 5.81786 9.78576 5.88818 9.85609C5.95851 9.92641 5.99802 10.0218 5.99802 10.1212C5.99802 10.2207 5.95851 10.3161 5.88818 10.3864C5.81786 10.4567 5.72247 10.4962 5.62302 10.4962H4.12302C3.62574 10.4962 3.14882 10.2987 2.79719 9.94708C2.44556 9.59544 2.24802 9.11853 2.24802 8.62125V7.27875L1.38552 8.14125C1.31479 8.20956 1.22007 8.24736 1.12174 8.2465C1.02342 8.24565 0.929363 8.20621 0.859835 8.13668C0.790307 8.06715 0.750869 7.9731 0.750014 7.87478C0.74916 7.77645 0.786958 7.68173 0.855267 7.611L2.35527 6.111C2.39 6.07603 2.43129 6.04825 2.47677 6.02925L2.48202 6.03Z" fill="white"/>
</g>
<defs>
<clipPath id="clip0_324_104">
<rect width="12" height="12" fill="white"/>
</clipPath>
</defs>
</svg>
