<svg width="12" height="13" viewBox="0 0 12 13" fill="none" xmlns="http://www.w3.org/2000/svg">
<path d="M5.0432 5.49025C4.50027 5.49025 3.96953 5.32925 3.51809 5.02762C3.06666 4.72598 2.71481 4.29725 2.50704 3.79564C2.29926 3.29404 2.2449 2.74208 2.35082 2.20958C2.45674 1.67708 2.71819 1.18794 3.1021 0.80403C3.48602 0.420117 3.97515 0.158669 4.50765 0.0527481C5.04016 -0.0531732 5.59211 0.00118942 6.09372 0.208962C6.59532 0.416734 7.02405 0.768583 7.32569 1.22002C7.62733 1.67145 7.78833 2.20219 7.78833 2.74513C7.78833 3.47318 7.49911 4.17141 6.9843 4.68622C6.46949 5.20104 5.77126 5.49025 5.0432 5.49025ZM5.0432 0.815696C4.65539 0.815696 4.27629 0.930695 3.95384 1.14615C3.63139 1.36161 3.38006 1.66784 3.23166 2.02613C3.08325 2.38442 3.04442 2.77868 3.12007 3.15903C3.19573 3.53939 3.38248 3.88877 3.6567 4.163C3.93093 4.43722 4.28031 4.62397 4.66067 4.69963C5.04103 4.77529 5.43528 4.73646 5.79357 4.58805C6.15186 4.43964 6.4581 4.18832 6.67355 3.86586C6.88901 3.54341 7.00401 3.16431 7.00401 2.7765C7.00401 2.519 6.95329 2.26403 6.85475 2.02613C6.75621 1.78824 6.61178 1.57208 6.4297 1.39C6.24762 1.20792 6.03147 1.06349 5.79357 0.964953C5.55567 0.866414 5.3007 0.815696 5.0432 0.815696ZM7.22754 5.96477C5.10535 5.48694 2.88507 5.71695 0.905905 6.61968C0.633704 6.7497 0.404042 6.95438 0.243663 7.20987C0.0832834 7.46537 -0.00121296 7.76117 1.31567e-05 8.06283V10.3962C1.31556e-05 10.4477 0.0101568 10.4987 0.0298647 10.5463C0.0495726 10.5938 0.0784589 10.6371 0.114874 10.6735C0.15129 10.7099 0.194521 10.7388 0.242101 10.7585C0.28968 10.7782 0.340675 10.7883 0.392174 10.7883C0.443673 10.7883 0.494668 10.7782 0.542248 10.7585C0.589827 10.7388 0.633058 10.7099 0.669474 10.6735C0.705889 10.6371 0.734775 10.5938 0.754483 10.5463C0.774191 10.4987 0.784335 10.4477 0.784335 10.3962V8.06283C0.780921 7.91016 0.822147 7.75982 0.902955 7.63025C0.983764 7.50067 1.10064 7.39751 1.23924 7.33341C2.43148 6.78277 3.72997 6.50032 5.0432 6.50595C5.77901 6.50509 6.5123 6.59198 7.22754 6.76478V5.96477ZM7.28244 9.69422H9.69031V10.2432H7.28244V9.69422Z" fill="white"/>
<path d="M11.6084 7.36463H9.58093V8.14896H11.2162V11.4313H5.65932V8.14896H8.12994V8.31366C8.12994 8.41767 8.17125 8.51742 8.2448 8.59096C8.31834 8.66451 8.41809 8.70582 8.5221 8.70582C8.6261 8.70582 8.72585 8.66451 8.7994 8.59096C8.87294 8.51742 8.91426 8.41767 8.91426 8.31366V6.78816C8.91426 6.68415 8.87294 6.5844 8.7994 6.51086C8.72585 6.43731 8.6261 6.396 8.5221 6.396C8.41809 6.396 8.31834 6.43731 8.2448 6.51086C8.17125 6.5844 8.12994 6.68415 8.12994 6.78816V7.36463H5.26716C5.16315 7.36463 5.06341 7.40595 4.98986 7.47949C4.91632 7.55304 4.875 7.65279 4.875 7.75679V11.8235C4.875 11.9275 4.91632 12.0273 4.98986 12.1008C5.06341 12.1743 5.16315 12.2157 5.26716 12.2157H11.6084C11.7124 12.2157 11.8122 12.1743 11.8857 12.1008C11.9592 12.0273 12.0006 11.9275 12.0006 11.8235V7.75679C12.0006 7.65279 11.9592 7.55304 11.8857 7.47949C11.8122 7.40595 11.7124 7.36463 11.6084 7.36463Z" fill="white"/>
</svg>
