<svg width="60" height="60" viewBox="0 0 60 60" fill="none" xmlns="http://www.w3.org/2000/svg">
<rect width="60" height="60" rx="12" fill="#330136" fill-opacity="0.9"/>
<rect width="60" height="60" rx="12" fill="url(#paint0_linear_584_80)" fill-opacity="0.9"/>
<path fill-rule="evenodd" clip-rule="evenodd" d="M33 17.5C33 16.837 32.7366 16.2011 32.2678 15.7322C31.7989 15.2634 31.163 15 30.5 15C29.837 15 29.2011 15.2634 28.7322 15.7322C28.2634 16.2011 28 16.837 28 17.5V27.5H18C17.337 27.5 16.7011 27.7634 16.2322 28.2322C15.7634 28.7011 15.5 29.337 15.5 30C15.5 30.663 15.7634 31.2989 16.2322 31.7678C16.7011 32.2366 17.337 32.5 18 32.5H28V42.5C28 43.163 28.2634 43.7989 28.7322 44.2678C29.2011 44.7366 29.837 45 30.5 45C31.163 45 31.7989 44.7366 32.2678 44.2678C32.7366 43.7989 33 43.163 33 42.5V32.5H43C43.663 32.5 44.2989 32.2366 44.7678 31.7678C45.2366 31.2989 45.5 30.663 45.5 30C45.5 29.337 45.2366 28.7011 44.7678 28.2322C44.2989 27.7634 43.663 27.5 43 27.5H33V17.5Z" fill="white"/>
<defs>
<linearGradient id="paint0_linear_584_80" x1="30" y1="0" x2="30" y2="60" gradientUnits="userSpaceOnUse">
<stop stop-color="#330136"/>
<stop offset="1" stop-color="#93039C"/>
</linearGradient>
</defs>
</svg>
