<svg width="12" height="12" viewBox="0 0 12 12" fill="none" xmlns="http://www.w3.org/2000/svg">
<path d="M7.79627 1.51359C7.34018 1.02117 6.70315 0.75 6.00002 0.75C5.29315 0.75 4.65401 1.01953 4.20002 1.50891C3.74112 2.00367 3.51752 2.67609 3.57002 3.40219C3.67409 4.83469 4.76416 6 6.00002 6C7.23588 6 8.32408 4.83492 8.42979 3.40265C8.48299 2.68312 8.25799 2.01211 7.79627 1.51359Z" fill="white"/>
<path d="M10.1251 11.2495H1.87513C1.76715 11.2509 1.66021 11.2282 1.56209 11.1831C1.46398 11.138 1.37716 11.0716 1.30795 10.9886C1.1556 10.8065 1.0942 10.5579 1.13967 10.3064C1.33748 9.20904 1.95482 8.28725 2.92513 7.64014C3.78716 7.06568 4.87912 6.74951 6.00013 6.74951C7.12115 6.74951 8.2131 7.06592 9.07513 7.64014C10.0454 8.28701 10.6628 9.20881 10.8606 10.3062C10.9061 10.5576 10.8447 10.8063 10.6923 10.9884C10.6231 11.0714 10.5363 11.1378 10.4382 11.183C10.3401 11.2282 10.2331 11.2509 10.1251 11.2495V11.2495Z" fill="white"/>
</svg>
