<svg width="72" height="72" viewBox="0 0 72 72" fill="none" xmlns="http://www.w3.org/2000/svg">
<path fill-rule="evenodd" clip-rule="evenodd" d="M56.4 20.0656C59.3823 20.0656 61.8 17.6875 61.8 14.7541C61.8 11.8207 59.3823 9.44263 56.4 9.44263C53.4177 9.44263 51 11.8207 51 14.7541C51 17.6875 53.4177 20.0656 56.4 20.0656Z" fill="#7F265B"/>
<path fill-rule="evenodd" clip-rule="evenodd" d="M16.2003 20.0656C19.1826 20.0656 21.6003 17.6875 21.6003 14.7541C21.6003 11.8207 19.1826 9.44263 16.2003 9.44263C13.218 9.44263 10.8003 11.8207 10.8003 14.7541C10.8003 17.6875 13.218 20.0656 16.2003 20.0656Z" fill="#7F265B"/>
<path fill-rule="evenodd" clip-rule="evenodd" d="M16.2003 62.5574C19.1826 62.5574 21.6003 60.1794 21.6003 57.2459C21.6003 54.3125 19.1826 51.9344 16.2003 51.9344C13.218 51.9344 10.8003 54.3125 10.8003 57.2459C10.8003 60.1794 13.218 62.5574 16.2003 62.5574Z" fill="#7F265B"/>
<path fill-rule="evenodd" clip-rule="evenodd" d="M56.4 62.5574C59.3823 62.5574 61.8 60.1794 61.8 57.2459C61.8 54.3125 59.3823 51.9344 56.4 51.9344C53.4177 51.9344 51 54.3125 51 57.2459C51 60.1794 53.4177 62.5574 56.4 62.5574Z" fill="#7F265B"/>
<rect y="32.459" width="72" height="7.08197" rx="3.54098" fill="#555555"/>
<rect x="39.2002" y="42" width="29.5082" height="7.2" rx="3.6" transform="rotate(90 39.2002 42)" fill="#555555"/>
<rect x="39.6001" width="29.5082" height="7.2" rx="3.6" transform="rotate(90 39.6001 0)" fill="#555555"/>
</svg>
