<svg width="12" height="12" viewBox="0 0 12 12" fill="none" xmlns="http://www.w3.org/2000/svg">
<path d="M8.35759 6.31217C8.14137 6.49115 7.95634 6.69095 7.80249 6.91155C7.45738 6.73673 7.09771 6.6077 6.72349 6.52445C6.34927 6.44121 5.96674 6.3975 5.57588 6.39334C5.12682 6.39334 4.69854 6.44953 4.29106 6.56191C3.88358 6.6743 3.50104 6.83247 3.14345 7.03642C2.78586 7.24037 2.4657 7.48803 2.18295 7.7794C1.90021 8.07076 1.65281 8.39334 1.44075 8.74714C1.22869 9.10094 1.07069 9.48595 0.966736 9.90218C0.862786 10.3184 0.806653 10.7471 0.798337 11.1883H0C0 10.5806 0.0893971 9.99584 0.268191 9.43392C0.446985 8.87201 0.704782 8.35796 1.04158 7.89178C1.37838 7.4256 1.77963 7.01769 2.24532 6.66805C2.71102 6.31842 3.23909 6.04995 3.82952 5.86264C3.60499 5.7128 3.40541 5.54006 3.23077 5.34443C3.05613 5.1488 2.90644 4.93652 2.7817 4.7076C2.65696 4.47867 2.56133 4.23725 2.4948 3.98335C2.42827 3.72945 2.39501 3.46722 2.39501 3.19667C2.39501 2.75546 2.47817 2.34131 2.64449 1.95421C2.81081 1.56712 3.0395 1.22997 3.33056 0.942768C3.62162 0.655567 3.9605 0.426639 4.34719 0.255983C4.73389 0.0853278 5.14761 0 5.58836 0C6.02911 0 6.44283 0.0832466 6.82952 0.24974C7.21622 0.416233 7.55301 0.645161 7.83992 0.936524C8.12682 1.22789 8.35551 1.56712 8.52599 1.95421C8.69647 2.34131 8.7817 2.75546 8.7817 3.19667C8.7817 3.46722 8.74844 3.72945 8.68191 3.98335C8.61538 4.23725 8.52183 4.48075 8.40125 4.71384C8.28067 4.94693 8.1289 5.15921 7.94595 5.35068C7.76299 5.54214 7.56133 5.71488 7.34096 5.86889C7.51975 5.92716 7.69231 5.99168 7.85863 6.06243C8.02495 6.13319 8.19127 6.21644 8.35759 6.31217ZM3.19335 3.19667C3.19335 3.52966 3.25572 3.83975 3.38046 4.12695C3.5052 4.41415 3.67568 4.66805 3.89189 4.88866C4.10811 5.10926 4.36175 5.282 4.65281 5.40687C4.94387 5.53174 5.25572 5.59417 5.58836 5.59417C5.91684 5.59417 6.22661 5.53174 6.51767 5.40687C6.80873 5.282 7.06237 5.11134 7.27859 4.8949C7.4948 4.67846 7.66736 4.42456 7.79626 4.13319C7.92516 3.84183 7.98753 3.52966 7.98337 3.19667C7.98337 2.86785 7.921 2.55775 7.79626 2.26639C7.67152 1.97503 7.50104 1.72112 7.28482 1.50468C7.06861 1.28824 6.81289 1.1155 6.51767 0.986472C6.22245 0.85744 5.91268 0.795005 5.58836 0.799168C5.25572 0.799168 4.94595 0.861602 4.65904 0.986472C4.37214 1.11134 4.1185 1.282 3.89813 1.49844C3.67775 1.71488 3.5052 1.97086 3.38046 2.26639C3.25572 2.56191 3.19335 2.87201 3.19335 3.19667ZM9.99168 6.3871C10.2661 6.3871 10.526 6.43913 10.7713 6.54318C11.0166 6.64724 11.2287 6.79084 11.4075 6.97399C11.5863 7.15713 11.7297 7.36941 11.8378 7.61082C11.9459 7.85224 12 8.11238 12 8.39126C12 8.66597 11.948 8.92404 11.8441 9.16545C11.7401 9.40687 11.5967 9.61915 11.4137 9.80229C11.2308 9.98543 11.0166 10.129 10.7713 10.2331C10.526 10.3371 10.2661 10.3913 9.99168 10.3954C9.58836 10.3954 9.22037 10.283 8.88773 10.0583L7.06653 11.8814C6.98753 11.9605 6.89397 12 6.78586 12C6.67775 12 6.5842 11.9605 6.5052 11.8814C6.4262 11.8023 6.38669 11.7086 6.38669 11.6004C6.38669 11.4922 6.4262 11.3985 6.5052 11.3195L8.3264 9.49636C8.10187 9.16337 7.98961 8.795 7.98961 8.39126C7.98961 8.11655 8.04158 7.85848 8.14553 7.61707C8.24948 7.37565 8.39293 7.16337 8.57588 6.98023C8.75884 6.79709 8.97089 6.65349 9.21206 6.54943C9.45322 6.44537 9.7131 6.39126 9.99168 6.3871ZM9.99168 9.59625C10.158 9.59625 10.3139 9.56504 10.4595 9.5026C10.605 9.44017 10.7318 9.35484 10.8399 9.24662C10.948 9.1384 11.0353 9.00937 11.1019 8.85952C11.1684 8.70968 11.2017 8.55359 11.2017 8.39126C11.2017 8.22477 11.1705 8.06868 11.1081 7.923C11.0457 7.77732 10.9584 7.65036 10.8462 7.54214C10.7339 7.43392 10.6071 7.34651 10.4657 7.27992C10.3243 7.21332 10.1663 7.1821 9.99168 7.18626C9.82536 7.18626 9.66944 7.21748 9.52391 7.27992C9.37838 7.34235 9.25156 7.42976 9.14345 7.54214C9.03534 7.65453 8.94803 7.78148 8.8815 7.923C8.81497 8.06452 8.78378 8.2206 8.78794 8.39126C8.78794 8.55775 8.81913 8.71384 8.8815 8.85952C8.94387 9.0052 9.02911 9.13215 9.13721 9.24037C9.24532 9.34859 9.37422 9.436 9.52391 9.5026C9.6736 9.5692 9.82952 9.60042 9.99168 9.59625Z" fill="white"/>
</svg>
